<svg xmlns="http://www.w3.org/2000/svg" width="933.333" height="933.333" preserveAspectRatio="xMidYMid meet" version="1.0" viewBox="0 0 700 700"><metadata>Created by potrace 1.11, written by Peter Selinger 2001-2013</metadata><g fill="#000" stroke="none"><path d="M3461 5365 c-18 -26 -44 -57 -57 -70 -13 -13 -24 -28 -24 -34 0 -5 -4 -11 -8 -13 -11 -4 -212 -271 -221 -292 -2 -6 -12 -18 -21 -28 -10 -11 -28 -39 -40 -63 -13 -25 -26 -45 -30 -45 -4 0 -13 -13 -20 -30 -7 -16 -16 -30 -21 -30 -5 0 -9 -6 -9 -14 0 -8 -6 -21 -12 -28 -7 -7 -24 -33 -37 -58 -14 -25 -27 -47 -30 -50 -3 -3 -22 -36 -41 -75 -19 -38 -38 -72 -41 -75 -3 -3 -14 -22 -24 -42 -19 -43 -24 -42 -93 14 -65 53 -242 172 -242 162 0 -2 -10 4 -22 16 -12 11 -25 21 -30 21 -4 1 -11 2 -15 3 -5 1 -36 18 -71 39 -35 20 -67 37 -73 37 -5 0 -20 7 -32 15 -30 19 -258 117 -324 139 -29 10 -55 22 -59 27 -3 5 -9 7 -14 4 -5 -3 -17 -1 -27 4 -19 11 -251 85 -268 86 -5 1 -20 4 -32 9 -12 4 -30 9 -40 11 -10 3 -69 18 -131 34 -63 16 -128 32 -145 35 -18 2 -48 9 -67 15 -19 5 -52 12 -72 15 -21 3 -43 7 -50 8 -10 2 -13 -35 -12 -172 1 -173 11 -407 20 -465 2 -16 6 -57 9 -90 2 -33 7 -85 11 -115 4 -30 8 -65 8 -77 1 -13 4 -23 8 -23 3 0 5 -17 5 -37 -2 -27 -6 -37 -16 -35 -45 10 -469 24 -482 16 -9 -5 37 -87 113 -202 26 -41 48 -78 48 -83 0 -5 4 -9 8 -9 5 0 14 -10 21 -22 11 -22 23 -42 66 -104 60 -88 210 -286 241 -318 12 -12 23 -27 25 -33 5 -14 72 -91 145 -169 28 -30 50 -54 48 -54 -6 0 215 -217 266 -260 28 -25 62 -54 75 -65 99 -88 154 -136 176 -156 14 -13 44 -37 67 -53 23 -16 42 -33 42 -37 0 -5 4 -9 9 -9 9 0 102 -59 129 -80 6 -6 12 -7 12 -3 0 4 4 3 8 -3 10 -16 230 -122 270 -130 17 -4 32 -10 32 -14 0 -5 15 -11 33 -15 17 -3 41 -10 52 -15 16 -6 93 -29 125 -36 3 0 12 -3 20 -7 23 -9 167 -37 224 -43 70 -7 99 -20 119 -52 9 -15 29 -41 44 -58 15 -17 48 -54 71 -82 53 -63 192 -201 263 -262 29 -25 57 -50 63 -56 6 -6 36 -29 66 -52 l54 -41 37 32 c20 18 55 48 78 67 137 115 291 272 401 407 58 71 74 87 88 88 23 3 102 14 127 19 11 2 53 10 93 17 39 7 72 16 72 19 0 3 8 7 18 8 21 2 57 10 57 12 0 1 9 3 19 5 27 5 116 35 151 50 88 39 129 55 141 55 8 0 14 3 14 8 0 4 29 20 65 37 36 16 65 32 65 36 0 4 17 15 38 24 20 10 48 26 62 37 109 81 194 150 243 197 31 30 65 60 75 65 9 5 31 22 47 38 17 15 48 44 70 64 129 117 311 305 355 365 15 21 30 36 33 33 3 -3 11 5 17 18 7 12 25 37 40 53 15 17 39 48 54 70 14 22 26 35 26 30 0 -5 14 13 31 41 17 27 35 52 40 55 5 3 22 24 37 46 15 23 50 73 77 113 28 39 55 79 60 88 6 9 14 21 18 26 16 21 79 121 105 166 14 25 32 51 39 58 7 7 13 20 13 28 0 8 4 14 9 14 5 0 11 9 14 19 5 19 -1 19 -157 16 -178 -4 -325 -13 -340 -22 -9 -6 -6 27 15 187 11 88 14 113 23 240 4 41 9 109 12 150 12 154 12 439 0 443 -6 2 -54 -6 -106 -19 -52 -12 -142 -33 -200 -47 -58 -14 -141 -35 -185 -47 -44 -12 -102 -27 -128 -34 -26 -6 -45 -15 -41 -19 4 -4 -1 -7 -11 -7 -22 0 -200 -56 -229 -73 -12 -6 -24 -10 -28 -9 -6 1 -58 -19 -148 -60 -24 -11 -56 -24 -70 -30 -53 -19 -80 -33 -80 -40 0 -5 -7 -8 -15 -8 -15 0 -34 -10 -160 -81 -38 -21 -78 -42 -87 -45 -10 -4 -18 -10 -18 -15 0 -5 -5 -9 -10 -9 -11 0 -152 -92 -180 -117 -21 -19 -92 -73 -96 -73 -1 0 -31 53 -65 118 -34 64 -65 119 -68 122 -4 3 -18 26 -31 53 -14 26 -28 47 -32 47 -5 0 -8 4 -8 9 0 15 -62 111 -71 111 -5 0 -9 6 -9 13 0 6 -21 41 -46 77 -25 36 -53 76 -62 90 -9 14 -19 27 -22 30 -3 3 -17 21 -30 40 -12 19 -28 40 -34 45 -6 6 -26 33 -45 60 -19 28 -45 60 -58 72 -13 12 -23 26 -23 30 -1 4 -22 32 -48 61 l-48 53 -33 -46z" transform="translate(0.000000,700.000000) scale(0.100000,-0.100000)"/></g></svg>