<?xml version="1.0" encoding="utf-8"?>
<svg viewBox="0 0 140 34" width="140" height="34" xmlns="http://www.w3.org/2000/svg">
	<style type="text/css">
		.st0{fill:#1E3B45;}
		.st1{fill:#BD483B;}
		.st2{fill:#E64E3D;}
		.st3{fill:#FEC82F;}
		.st4{fill:#DF9C26;}
	</style>
	<g>
		<g>
			<g>
				<path class="st0" d="M43.616,19.576c0,4.005-1.389,6.008-4.168,6.008c-0.432,0-0.853-0.059-1.261-0.174v-1.112 c0.455,0.154,0.883,0.232,1.285,0.232c1.065,0,1.833-0.404,2.304-1.209c0.471-0.807,0.706-2.063,0.706-3.769V8.693h1.134V19.576z "/>
				<path class="st0" d="M47.065,24.705v-1.309c1.188,0.756,2.393,1.135,3.612,1.135c1.296,0,2.28-0.268,2.952-0.805 c0.671-0.537,1.007-1.288,1.007-2.251c0-0.85-0.226-1.528-0.678-2.032c-0.451-0.506-1.429-1.194-2.935-2.067 c-1.682-0.979-2.747-1.799-3.195-2.46c-0.447-0.66-0.671-1.422-0.671-2.286c0-1.172,0.455-2.169,1.366-2.988 c0.911-0.817,2.126-1.227,3.647-1.227c0.988,0,1.975,0.166,2.963,0.498v1.204c-0.972-0.44-2.011-0.66-3.113-0.66 c-1.127,0-2.02,0.287-2.681,0.858c-0.659,0.571-0.99,1.297-0.99,2.177c0,0.848,0.226,1.524,0.677,2.026 c0.452,0.5,1.426,1.184,2.923,2.048c1.551,0.881,2.584,1.663,3.097,2.345c0.514,0.684,0.77,1.469,0.77,2.356 c0,1.274-0.442,2.311-1.325,3.114c-0.884,0.803-2.133,1.204-3.746,1.204c-0.572,0-1.229-0.09-1.973-0.266 C48.027,25.141,47.459,24.936,47.065,24.705z"/>
				<path class="st0" d="M59.104,25.295V8.693h5.881c5.895,0,8.844,2.698,8.844,8.093c0,2.585-0.805,4.65-2.413,6.194 c-1.61,1.543-3.753,2.315-6.431,2.315H59.104z M62.844,11.739v10.522h1.852c1.621,0,2.892-0.485,3.814-1.458 c0.922-0.973,1.383-2.296,1.383-3.97c0-1.583-0.457-2.827-1.372-3.734c-0.914-0.907-2.199-1.36-3.85-1.36H62.844z"/>
				<path class="st0" d="M86.841,25.295h-9.957V8.693h9.574v3.046h-5.834v3.693h5.43v3.032h-5.43v3.796h6.217V25.295z"/>
				<path class="st0" d="M99.893,25.295h-9.887V8.693h3.74v13.568h6.147V25.295z"/>
				<path class="st0" d="M105.989,8.693v16.602h-3.74V8.693H105.989z"/>
				<path class="st0" d="M123.834,8.693l-5.719,16.602h-4.236l-5.651-16.602h4.029l3.462,11.553c0.186,0.625,0.297,1.178,0.336,1.657 h0.068c0.055-0.518,0.174-1.084,0.36-1.702l3.439-11.508H123.834z"/>
				<path class="st0" d="M140,25.295h-4.295l-2.581-4.273c-0.193-0.322-0.379-0.613-0.555-0.868 c-0.178-0.254-0.358-0.473-0.539-0.654c-0.182-0.18-0.369-0.321-0.567-0.416c-0.197-0.096-0.41-0.145-0.643-0.145h-1.006v6.356 h-3.74V8.693h5.926c4.029,0,6.043,1.506,6.043,4.515c0,0.578-0.088,1.114-0.266,1.604c-0.178,0.49-0.428,0.932-0.752,1.325 c-0.324,0.395-0.717,0.733-1.176,1.02c-0.459,0.285-0.969,0.508-1.534,0.67v0.047c0.248,0.076,0.486,0.203,0.719,0.375 c0.231,0.174,0.455,0.377,0.67,0.61c0.217,0.231,0.424,0.479,0.619,0.746c0.197,0.266,0.377,0.526,0.539,0.782L140,25.295z  M129.815,11.495v4.619h1.62c0.803,0,1.448-0.231,1.932-0.694c0.494-0.471,0.742-1.053,0.742-1.749 c0-1.45-0.87-2.177-2.605-2.177H129.815z"/>
			</g>
		</g>
		<g>
			<polygon class="st1" points="15.386,0.338 12.28,11.376 12.28,11.48 12.28,22.519 15.386,33.662 15.386,33.662 18.58,22.519 18.58,11.48 18.58,11.376 15.386,0.338"/>
			<g>
				<g>
					<polyline class="st2" points="15.386,0.338 0,5.88 2.186,26.372 15.386,33.662"/>
					<polyline class="st1" points="15.386,33.662 28.654,26.297 31.137,5.807 15.386,0.338"/>
				</g>
				<g>
					<path class="st3" d="M12.594,25.088c-1.514-0.473-2.864-1.317-3.94-2.431l-0.003-0.002c-0.131-0.137-0.257-0.274-0.381-0.418 c-0.838-0.979-1.478-2.13-1.857-3.396c0.251,0.233,0.518,0.447,0.796,0.647l0,0c0.003,0.008,0.008,0.016,0.011,0.027 c-0.003-0.012-0.008-0.02-0.011-0.027c0.398,0.279,0.822,0.526,1.269,0.737c0.141,0.064,0.282,0.125,0.427,0.186 c0.177,0.07,0.36,0.135,0.542,0.195c0.011,0.006,0.024,0.006,0.035,0.01c0.032,0.012,0.065,0.023,0.097,0.033 c0.074,0.756,0.649,1.372,1.39,1.504C11.256,23.31,11.802,24.299,12.594,25.088z"/>
					<path class="st3" d="M13.174,11.794c0,0.324,0.088,0.627,0.243,0.883c-1.25,1.753-2.108,3.656-2.479,5.539 c-0.041,0.209-0.077,0.416-0.105,0.619c-0.429,0.113-0.79,0.393-1.016,0.762c-0.013,0-0.024-0.004-0.035-0.01 c-0.023-0.006-0.04-0.014-0.061-0.021c-0.142-0.045-0.281-0.098-0.417-0.152c-0.204-0.08-0.403-0.174-0.598-0.272 c-0.663-0.338-1.26-0.772-1.781-1.291c-0.11-0.111-0.213-0.219-0.311-0.332L6.573,17.47c-0.038-0.045-0.078-0.092-0.115-0.137 c-0.017-0.021-0.032-0.039-0.047-0.059c-0.014-0.018-0.024-0.031-0.037-0.045c-0.005-0.01-0.013-0.016-0.017-0.023 c-0.02-0.022-0.037-0.047-0.053-0.068c-0.008-0.012-0.017-0.022-0.023-0.029c-0.001-0.004-0.002-0.004-0.004-0.008 c-0.013-0.014-0.024-0.033-0.037-0.049c-0.055-0.072-0.107-0.149-0.157-0.225c-0.009-0.012-0.019-0.024-0.025-0.039 c-0.006-0.006-0.015-0.018-0.02-0.027c-0.014-0.203-0.02-0.408-0.02-0.617c0-1.882,0.557-3.636,1.512-5.105 c0.113-0.176,0.235-0.348,0.361-0.514c0.12-0.16,0.245-0.319,0.374-0.467c1.126-1.317,2.61-2.315,4.299-2.847 c0.026,0.182,0.059,0.367,0.095,0.553c0.192,0.967,0.513,1.942,0.949,2.898C13.337,10.962,13.174,11.36,13.174,11.794z"/>
					<path class="st3" d="M12.176,20.479c0,0.221-0.079,0.424-0.212,0.58c-0.029,0.037-0.061,0.068-0.096,0.1 c-0.161,0.141-0.368,0.225-0.596,0.225c-0.173,0-0.335-0.049-0.472-0.135c-0.147-0.09-0.265-0.219-0.342-0.375 c-0.058-0.121-0.089-0.252-0.089-0.395c0-0.26,0.11-0.494,0.286-0.658c0.029-0.027,0.06-0.051,0.091-0.074 c0.148-0.107,0.331-0.17,0.526-0.17c0.206,0,0.395,0.068,0.546,0.186c0.085,0.063,0.155,0.139,0.213,0.229 C12.125,20.129,12.176,20.299,12.176,20.479z"/>
					<path class="st3" d="M15.777,11.794c0,0.147-0.032,0.281-0.094,0.403c-0.148,0.299-0.456,0.502-0.808,0.502 c-0.044,0-0.087-0.002-0.128-0.006c-0.008-0.004-0.016-0.004-0.025-0.006c-0.383-0.066-0.684-0.369-0.741-0.756 c-0.007-0.043-0.01-0.09-0.01-0.137c0-0.102,0.017-0.201,0.05-0.295c0.123-0.354,0.46-0.606,0.854-0.606h0.002 c0.012,0,0.024,0,0.036,0c0.392,0.018,0.72,0.285,0.827,0.645C15.765,11.62,15.777,11.706,15.777,11.794z"/>
					<path class="st4" d="M24.752,16.143c0,0.907-0.129,1.782-0.368,2.61c-0.799-0.211-1.606-0.52-2.4-0.914 c0.022-0.109,0.033-0.221,0.033-0.336c0-0.225-0.044-0.442-0.125-0.639c0.031-0.029,0.064-0.061,0.095-0.094 c0.957-0.977,1.763-2.055,2.404-3.212C24.625,14.379,24.752,15.248,24.752,16.143z"/>
					<path class="st4" d="M23.881,12.196c-0.063,0.139-0.131,0.277-0.201,0.416c-0.627,1.235-1.455,2.382-2.459,3.407 c-0.009,0.01-0.02,0.02-0.028,0.027c-0.255-0.156-0.557-0.244-0.879-0.244c-0.375,0-0.722,0.123-1.004,0.328 c-0.514-0.404-1.011-0.848-1.49-1.327c-0.608-0.604-1.157-1.247-1.647-1.909c0.252-0.297,0.405-0.68,0.405-1.102 c0-0.313-0.087-0.61-0.237-0.862c1.21-1.163,2.547-2.106,3.917-2.788C21.83,9.103,23.099,10.514,23.881,12.196z"/>
					<path class="st4" d="M21.217,17.503c0,0.379-0.23,0.701-0.556,0.836c-0.108,0.045-0.225,0.07-0.348,0.07 c-0.063,0-0.125-0.008-0.185-0.02c-0.385-0.082-0.681-0.408-0.715-0.805c0.011-0.01,0.021-0.016,0.028-0.022 c-0.01-0.008-0.021-0.014-0.03-0.023c-0.001-0.012-0.001-0.022-0.001-0.037c0-0.389,0.25-0.723,0.601-0.85 c0.095-0.033,0.196-0.053,0.302-0.053c0.09,0,0.179,0.014,0.262,0.039c0.346,0.105,0.606,0.412,0.64,0.785 C21.217,17.45,21.217,17.478,21.217,17.503z"/>
					<path class="st4" d="M21.452,18.767c-0.301,0.274-0.7,0.44-1.139,0.44c-0.351,0-0.677-0.107-0.949-0.289 c-0.039,0.025-0.078,0.051-0.115,0.072c-1.233,0.781-2.538,1.352-3.864,1.698v4.824c3.887,0,7.222-2.37,8.64-5.744 C23.166,19.531,22.302,19.195,21.452,18.767z"/>
					<path class="st3" d="M15.386,20.688c-0.793,0.205-1.591,0.33-2.385,0.367c-0.042,0.002-0.086,0.006-0.128,0.008 c-0.151,0.41-0.454,0.744-0.839,0.94c0.245,0.909,0.688,1.698,1.319,2.327c0.524,0.524,1.162,0.92,1.891,1.18 c0.046,0,0.093,0.002,0.142,0.002V20.688z"/>
					<path class="st4" d="M18.612,17.503c0-0.172,0.026-0.34,0.074-0.498c-0.562-0.44-1.106-0.92-1.625-1.442 c-0.614-0.614-1.172-1.262-1.675-1.934v5.946c1.124-0.324,2.235-0.823,3.291-1.489c0.009-0.006,0.02-0.014,0.03-0.022 C18.646,17.89,18.612,17.7,18.612,17.503z"/>
					<path class="st3" d="M15.386,13.629c-0.045-0.059-0.091-0.113-0.132-0.174c-0.123,0.029-0.249,0.043-0.378,0.043 c-0.227,0-0.441-0.045-0.637-0.123c-1.134,1.606-1.912,3.341-2.25,5.049c-0.032,0.162-0.059,0.32-0.083,0.475 c0.477,0.195,0.848,0.596,0.996,1.092c0.016-0.004,0.029-0.004,0.046-0.004c0.809-0.039,1.627-0.18,2.438-0.412V13.629z"/>
					<path class="st4" d="M15.386,6.778v3.394c0.048,0.016,0.098,0.033,0.145,0.055c1.106-1.073,2.316-1.979,3.573-2.681 C17.964,7.05,16.705,6.778,15.386,6.778z"/>
					<path class="st3" d="M15.386,6.778c-0.608,0-1.201,0.055-1.773,0.168c0.025,0.197,0.06,0.404,0.101,0.606 c0.168,0.86,0.449,1.725,0.829,2.575c0.106-0.02,0.219-0.033,0.333-0.033c0.178,0,0.347,0.027,0.51,0.078V6.778z"/>
				</g>
			</g>
		</g>
	</g>
</svg>
