<svg width="20" height="20" viewBox="0 0 20 20" fill="none" xmlns="http://www.w3.org/2000/svg">
<path d="M1.33205 10.8638C0.997513 10.3305 0.997513 9.66951 1.33205 9.13625C2.46339 7.33287 5.48178 3.33334 10 3.33334C14.5182 3.33334 17.5366 7.33287 18.6679 9.13625C19.0025 9.66951 19.0025 10.3305 18.6679 10.8638C17.5366 12.6672 14.5182 16.6667 10 16.6667C5.48178 16.6667 2.46339 12.6672 1.33205 10.8638Z" stroke="#01112C" stroke-width="1.5" stroke-linecap="round" stroke-linejoin="round"/>
<path d="M10 12.5C11.3807 12.5 12.5 11.3807 12.5 10C12.5 8.61929 11.3807 7.5 10 7.5C8.61929 7.5 7.5 8.61929 7.5 10C7.5 11.3807 8.61929 12.5 10 12.5Z" stroke="#01112C" stroke-width="1.5" stroke-linecap="round" stroke-linejoin="round"/>
</svg>
